<svg xmlns="http://www.w3.org/2000/svg" width="128" height="193" viewBox="0 0 33.866666 51.064585"><g transform="translate(0 -245.935)"><rect width="33.867" height="51.065" y="245.935" ry="0" opacity=".98" fill="#f4f1ea"/><g style="line-height:1.25" font-weight="400" font-size="25" font-family="Abhaya Libre ExtraBold" letter-spacing="0" word-spacing="0" text-anchor="middle" fill="#382110"><path d="M9.522 263.183q0 .943.717 1.299.336.161.768.161.672 0 1.034-.407.123-.142.187-.31l-.168-.045q-.18.388-.613.523-.168.052-.336.052-.446 0-.595-.4-.11-.298-.11-.84 0-1.086.343-1.292.103-.058.245-.058.285 0 .35.264.012.052.032.175.038.297.155.38.09.066.245.066.33 0 .407-.246.013-.052.013-.103 0-.285-.342-.498-.336-.2-.84-.2-.685 0-1.111.446-.381.4-.381 1.033zM13.34 263.177q0-.904.219-1.156.136-.149.381-.149.413 0 .53.42.077.271.077.859 0 .943-.245 1.189-.142.135-.368.135-.401 0-.517-.413-.078-.278-.078-.885zm.632-1.473q-.794 0-1.22.543-.298.387-.298.904 0 .73.504 1.156.4.336.956.336.762 0 1.195-.549.323-.413.323-.956 0-.723-.51-1.13-.394-.304-.95-.304zM17.137 261.962v-.161h-1.492v.161h.252l.814 2.177q.142.369.226.427.071.045.207.045h.232l.937-2.461q.065-.162.168-.181.039-.007.078-.007.103 0 .116-.012.013-.04.013-.149H17.64v.161h.53l-.762 1.951-.71-1.95zM20.348 261.872q.413.013.42.704 0 .304-.181.375-.13.045-.388.032l-.413-.02q.045-1.072.562-1.091zm1.208 2.041l-.155-.051q-.181.394-.569.536-.155.058-.316.058-.517 0-.666-.659-.058-.271-.064-.646l.594.02q1.04.032 1.208-.33.039-.09.039-.2 0-.55-.562-.801-.317-.136-.717-.136-.73 0-1.137.497-.31.388-.31.963 0 .937.704 1.305.336.174.762.174.756 0 1.085-.53.065-.096.104-.2zM23.584 264.41h-.478v-1.395q.045-.678.33-.826.045-.02.083-.02.072 0 .156.149.116.206.251.258.065.02.143.02.258 0 .368-.246.039-.084.039-.174 0-.323-.317-.407-.078-.02-.161-.02-.401 0-.705.317-.135.155-.206.336l-.046-.601h-1.13v.168h.375v2.106q0 .284-.226.323-.065.013-.149.013v.168h1.828q0-.149-.084-.162-.032-.006-.07-.006zM13.733 272.679h-.161l.006-1.654q.045-.51.375-.672.09-.045.187-.045.368 0 .433.433.013.084.013.174v1.428q0 .271-.142.316-.065.02-.155.02v.168h1.492q0-.149-.084-.162-.039-.006-.078-.006h-.213v-1.654q0-.8-.568-1.001-.155-.052-.323-.052-.472 0-.801.375-.097.11-.155.226l-.032-.504h-1.15v.168h.374v2.106q0 .297-.277.33-.046.006-.097.006v.168h1.511q0-.149-.084-.162-.032-.006-.07-.006zM16.957 271.445q0-.904.22-1.156.135-.149.38-.149.414 0 .53.42.078.271.078.86 0 .942-.246 1.188-.142.135-.368.135-.4 0-.517-.413-.077-.278-.077-.885zm.633-1.473q-.795 0-1.221.543-.297.387-.297.904 0 .73.503 1.157.401.335.956.335.763 0 1.196-.549.322-.413.322-.956 0-.723-.51-1.13-.394-.304-.95-.304zM19.347 270.27h.445v1.614q0 .937.775 1.027.078.007.156.007.497 0 .684-.323.09-.162.142-.426l-.174-.026q-.13.523-.381.575-.039.006-.078.006-.239 0-.29-.336-.013-.077-.013-.161v-1.958h.852v-.168h-.852v-.749l-.82.136v.613h-.446zM10.568 280.947h-.459v-2.435h.73v-.175h-.73v-.032q0-.975.149-1.163.078-.09.2-.09.162 0 .265.245.13.298.168.35.11.122.258.128.265 0 .35-.206.019-.052.019-.11 0-.284-.336-.452-.246-.123-.595-.123-.755 0-1.091.543-.207.336-.207.826v.084h-.523v.175h.523v2.1q-.013.335-.49.335v.168h1.924q0-.149-.084-.161-.032-.007-.07-.007z" style="-inkscape-font-specification:'Abhaya Libre ExtraBold, ';text-align:center"/><path d="M11.95 279.713q0-.904.22-1.156.136-.149.381-.149.414 0 .53.42.077.272.077.86 0 .943-.245 1.188-.142.136-.368.136-.4 0-.517-.414-.078-.277-.078-.885zm.633-1.472q-.794 0-1.22.542-.298.388-.298.904 0 .73.504 1.157.4.336.956.336.763 0 1.195-.55.323-.413.323-.955 0-.724-.51-1.13-.394-.304-.95-.304zM17.59 280.947h-.22v-2.61h-1.137v.168h.317l-.007 1.628q-.045.504-.368.666-.097.045-.194.045-.368 0-.433-.433-.013-.084-.013-.174v-1.9H14.34v.168h.375v1.622q.013 1.046.924 1.053.581 0 .885-.517l.039-.078.032.53h1.15q0-.142-.078-.161-.032-.007-.077-.007zM19.36 280.947h-.162l.007-1.654q.045-.51.374-.671.09-.046.187-.046.369 0 .433.433.013.084.013.175v1.427q0 .271-.142.317-.065.02-.155.02v.167h1.492q0-.149-.084-.161-.039-.007-.077-.007h-.213v-1.654q0-.8-.569-1-.155-.052-.323-.052-.471 0-.8.374-.098.11-.156.226l-.032-.504h-1.15v.168h.375v2.106q0 .297-.278.33-.045.006-.097.006v.168h1.512q0-.149-.084-.161-.033-.007-.071-.007zM23.94 281.115h1.156q0-.149-.078-.168-.032-.006-.077-.006h-.298v-4.025h-1.408v.168h.588v1.434q-.33-.284-.788-.284-.614 0-1.001.472-.336.426-.336 1.072 0 .8.523 1.182.297.22.659.22.6 0 .891-.51.046-.078.078-.162zm-1.357-1.415q0-.943.407-1.188.116-.065.245-.065.465 0 .575.717.026.194.026.414 0 .969-.407 1.233-.116.071-.252.071-.452 0-.562-.736-.032-.2-.032-.446z" style="-inkscape-font-specification:'Abhaya Libre ExtraBold, ';text-align:center"/></g></g></svg>